<svg xmlns="http://www.w3.org/2000/svg"  viewBox="0 0 64 64" width="64px" height="64px"><path fill="#85cbf8" d="M15,5C9.486,5,5,9.486,5,15v34c0,5.514,4.486,10,10,10h34c5.514,0,10-4.486,10-10V15	c0-5.514-4.486-10-10-10H15z"/><path fill="#7bbeeb" d="M38.5,52c-3.297,0-6.452-0.569-9.363-1.607c-0.749-0.267-1.545-0.411-2.334-0.312	C23.808,50.453,22.008,52,17.5,52c-0.662,0-1.212-0.032-1.666-0.08L13,51.5c0,0.256,0.098,0.512,0.293,0.707l6.803,6.803L49,59	c5.523,0,10-4.477,10-10v-6.159C54.14,48.432,46.762,52,38.5,52z"/><path fill="#fff" d="M49,5H25.904C17.624,9.228,12,17.494,12,27c0,6.501,2.631,12.423,6.942,16.869	c0.516,0.532,0.706,1.319,0.4,1.994C17.789,49.285,14,51.5,14,51.5s0.875,0.5,3.5,0.5c4.509,0,6.309-1.548,9.304-1.92	c0.788-0.098,1.583,0.045,2.331,0.312C32.047,51.431,35.203,52,38.5,52c8.262,0,15.64-3.568,20.5-9.159V15C59,9.477,54.523,5,49,5z"/><path fill="#8d6c9f" d="M34.401,53.711c-0.047,0-0.094-0.003-0.142-0.01c-0.547-0.077-0.927-0.584-0.85-1.131l0.28-1.979	c0.078-0.547,0.586-0.93,1.13-0.85c0.547,0.077,0.927,0.584,0.85,1.131l-0.28,1.979C35.319,53.351,34.891,53.711,34.401,53.711z M39.784,53.969c0.552-0.023,0.98-0.489,0.957-1.041l-0.084-1.998c-0.023-0.553-0.492-1.008-1.042-0.957	c-0.552,0.023-0.98,0.489-0.957,1.041l0.084,1.998c0.022,0.538,0.465,0.958,0.998,0.958C39.755,53.97,39.77,53.97,39.784,53.969z M45.269,53.227c0.538-0.125,0.874-0.662,0.749-1.2l-0.45-1.948c-0.124-0.538-0.665-0.875-1.199-0.749	c-0.538,0.125-0.874,0.662-0.749,1.2l0.45,1.948c0.106,0.462,0.518,0.774,0.973,0.774C45.117,53.252,45.193,53.244,45.269,53.227z M50.527,51.477c0.505-0.224,0.733-0.814,0.51-1.319l-0.808-1.829c-0.224-0.507-0.816-0.733-1.319-0.511	c-0.505,0.224-0.733,0.814-0.51,1.319l0.808,1.829c0.165,0.374,0.531,0.596,0.915,0.596C50.259,51.562,50.396,51.534,50.527,51.477z M55.365,48.759c0.453-0.315,0.564-0.938,0.249-1.392l-1.144-1.642c-0.316-0.454-0.939-0.563-1.392-0.249	c-0.453,0.315-0.564,0.938-0.249,1.392l1.144,1.642c0.194,0.279,0.505,0.429,0.821,0.429C54.992,48.938,55.191,48.88,55.365,48.759z"/><path fill="#8d6c9f" d="M17.5,53c-2.751,0-3.812-0.526-3.996-0.632c-0.31-0.177-0.501-0.506-0.503-0.862	c-0.002-0.356,0.187-0.688,0.494-0.868c0.036-0.021,3.539-2.106,4.937-5.188c0.124-0.273,0.041-0.629-0.207-0.885	C13.566,39.762,11,33.523,11,27c0-9.567,5.537-18.339,14.45-22.891c0.492-0.251,1.095-0.056,1.345,0.436	c0.251,0.492,0.056,1.095-0.436,1.346C18.119,10.099,13,18.188,13,27c0,6.001,2.365,11.744,6.66,16.173	c0.828,0.854,1.06,2.072,0.592,3.104c-0.918,2.022-2.52,3.636-3.801,4.692C16.759,50.988,17.107,51,17.5,51	c2.583,0,4.213-0.537,5.79-1.056c1.043-0.344,2.122-0.699,3.392-0.856c0.873-0.107,1.814,0.014,2.791,0.363	c0.52,0.186,0.791,0.758,0.604,1.278c-0.186,0.52-0.758,0.792-1.278,0.604c-0.68-0.243-1.311-0.332-1.871-0.262	c-1.075,0.134-2.016,0.443-3.012,0.771C22.27,52.386,20.404,53,17.5,53z"/><path fill="#8d6c9f" d="M50,35c-2.757,0-5-2.439-5-5.438s2.243-5.438,5-5.438s5,2.439,5,5.438S52.757,35,50,35z M50,27	c-1.103,0-2,1.15-2,2.562s0.897,2.562,2,2.562s2-1.15,2-2.562S51.103,27,50,27z"/><path fill="#8d6c9f" d="M42.5,35c-0.829,0-1.5-0.672-1.5-1.5v-12c0-0.828,0.671-1.5,1.5-1.5s1.5,0.672,1.5,1.5v12	C44,34.328,43.329,35,42.5,35z"/><path fill="#8d6c9f" d="M38.125,24.375c-0.564,0-1.049,0.315-1.305,0.774c-0.759-0.642-1.688-1.024-2.695-1.024	c-2.554,0-4.625,2.434-4.625,5.438c0,3.003,2.071,5.438,4.625,5.438c1.007,0,1.936-0.382,2.695-1.024	c0.256,0.46,0.741,0.774,1.305,0.774c0.829,0,1.5-0.672,1.5-1.5v-7.375C39.625,25.047,38.954,24.375,38.125,24.375z M34.562,32.125	c-1.139,0-2.062-1.147-2.062-2.562c0-1.415,0.923-2.562,2.062-2.562s2.062,1.147,2.062,2.562	C36.625,30.978,35.702,32.125,34.562,32.125z"/><path fill="#8d6c9f" d="M28,34.625h-7.375c-0.616,0-1.171-0.341-1.451-0.889c-0.279-0.549-0.228-1.198,0.133-1.695L25.077,24	H20.75c-0.829,0-1.5-0.672-1.5-1.5s0.671-1.5,1.5-1.5H28c0.562,0,1.078,0.314,1.334,0.815c0.257,0.5,0.212,1.103-0.116,1.56	l-5.92,8.25H28c0.829,0,1.5,0.672,1.5,1.5S28.829,34.625,28,34.625z M21.749,33.784l-0.009,0.014	C21.742,33.793,21.746,33.789,21.749,33.784z"/><path fill="#8d6c9f" d="M49,6c4.963,0,9,4.037,9,9v34c0,4.963-4.037,9-9,9H15c-4.963,0-9-4.037-9-9V15c0-4.963,4.037-9,9-9	H49 M49,4H15C8.925,4,4,8.925,4,15v34c0,6.075,4.925,11,11,11h34c6.075,0,11-4.925,11-11V15C60,8.925,55.075,4,49,4L49,4z"/></svg>